<svg xmlns="http://www.w3.org/2000/svg" width="60" height="48" viewBox="0 0 60 48" fill="none">
  <g clip-path="url(#clip0_1_128)">
    <path d="M50.145 21.2438C50.5246 20.2406 50.7375 19.1437 50.7375 18C50.7375 13.0312 46.7566 9 41.85 9C40.0262 9 38.3228 9.5625 36.9156 10.5187C34.3512 6.01875 29.5649 3 24.075 3C15.8911 3 9.2625 9.7125 9.2625 18C9.2625 18.2531 9.27176 18.5063 9.28102 18.7594C4.09664 20.6063 0.375 25.6125 0.375 31.5C0.375 38.9531 6.34629 45 13.7063 45H47.775C54.3203 45 59.625 39.6281 59.625 33C59.625 27.1969 55.5516 22.35 50.145 21.2438ZM37.8414 29.5594L28.0836 39.4406C27.5096 40.0219 26.5654 40.0219 25.9914 39.4406L16.2336 29.5594C15.2986 28.6125 15.9652 27 17.2798 27H23.3344V16.5C23.3344 15.675 24.0009 15 24.8156 15H29.2594C30.0741 15 30.7406 15.675 30.7406 16.5V27H36.7952C38.1098 27 38.7764 28.6125 37.8414 29.5594Z" fill="#FCA311"/>
  </g>
  <defs>
    <clipPath id="clip0_1_128">
      <rect width="59.25" height="48" fill="white" transform="translate(0.375)"/>
    </clipPath>
  </defs>
</svg>