<svg xmlns="http://www.w3.org/2000/svg" width="91" height="50" viewBox="0 0 91 50" fill="#333">
  <path d="M64.6523 7.88263H48.2996C47.4954 7.88188 46.699 8.04276 45.9557 8.35609C45.2124 8.66942 44.5369 9.12907 43.9678 9.70878C43.3986 10.2885 42.9469 10.9769 42.6385 11.7348C42.33 12.4926 42.1709 13.305 42.1702 14.1256V17.578H28.1238C26.4991 17.5795 24.9415 18.2392 23.7933 19.4119C22.645 20.5847 22 22.1747 22 23.8325V33.315C22.002 34.8218 22.537 36.2773 23.5067 37.4137C24.4764 38.5502 25.8156 39.2912 27.278 39.5005V45.5881C27.2789 45.7421 27.3201 45.8929 27.3973 46.0251C27.4746 46.1573 27.5851 46.2661 27.7174 46.34C27.8497 46.414 27.999 46.4505 28.1497 46.4457C28.3005 46.441 28.4473 46.3952 28.5749 46.3131L39.0575 39.558H44.5159C46.1337 39.5504 47.6826 38.8893 48.8239 37.7193C49.9652 36.5494 50.6059 34.9658 50.6059 33.315V29.8626H53.7467L64.1899 36.6063C64.3255 36.6918 64.4816 36.7376 64.641 36.7386C64.7844 36.7384 64.9256 36.7028 65.0526 36.635C65.1847 36.5593 65.2945 36.449 65.3708 36.3155C65.4472 36.1819 65.4872 36.0301 65.4868 35.8755V29.7936C66.9492 29.5843 68.2884 28.8433 69.2581 27.7068C70.2278 26.5704 70.7628 25.115 70.7648 23.6081V14.1256C70.7618 12.4718 70.117 10.8865 68.9715 9.71655C67.826 8.54659 66.273 7.88719 64.6523 7.88263ZM48.9142 33.315C48.9127 34.5125 48.4459 35.6605 47.6161 36.5072C46.7863 37.354 45.6613 37.8303 44.4877 37.8318H38.7869C38.6246 37.8306 38.4656 37.8787 38.3301 37.9699L28.9753 44.0173V38.6719C28.9753 38.443 28.8861 38.2235 28.7275 38.0616C28.5689 37.8998 28.3538 37.8088 28.1294 37.8088C26.9554 37.8073 25.8298 37.3311 24.9991 36.4846C24.1684 35.638 23.7003 34.49 23.6973 33.292V23.8325C23.7003 22.6345 24.1684 21.4866 24.9991 20.64C25.8298 19.7934 26.9554 19.3172 28.1294 19.3157H44.4821C45.6556 19.3172 46.7807 19.7936 47.6105 20.6403C48.4403 21.4871 48.9071 22.6351 48.9086 23.8325L48.9142 33.315ZM69.0844 23.6081C69.0814 24.8061 68.6133 25.9541 67.7826 26.8007C66.9519 27.6473 65.8263 28.1234 64.6523 28.125C64.4279 28.125 64.2128 28.2159 64.0542 28.3778C63.8956 28.5396 63.8064 28.7591 63.8064 28.9881V34.3104L54.446 28.2631C54.3105 28.1718 54.1515 28.1237 53.9892 28.125H50.6059V23.8325C50.6044 22.1772 49.9593 20.5902 48.8123 19.4197C47.6652 18.2493 46.1099 17.591 44.4877 17.5895H43.8618V14.1372C43.8633 12.9397 44.3302 11.7917 45.16 10.945C45.9898 10.0982 47.1148 9.62184 48.2883 9.62032H64.641C65.815 9.62184 66.9407 10.098 67.7714 10.9446C68.6021 11.7912 69.0702 12.9392 69.0731 14.1372L69.0844 23.6081Z"/>
  <path d="M33.4924 22.4832C33.3427 22.1573 33.6154 21.8222 33.974 21.8222H34.3155C34.5665 21.8222 34.7771 21.9947 34.9019 22.2125C34.9947 22.3745 35.112 22.5105 35.2536 22.6207C35.5062 22.8011 35.8265 22.8913 36.2144 22.8913C36.6114 22.8913 36.9317 22.8011 37.1753 22.6207C37.3169 22.5105 37.4341 22.3745 37.5269 22.2125C37.6518 21.9947 37.8623 21.8222 38.1134 21.8222H38.4548C38.8134 21.8222 39.0862 22.1573 38.9364 22.4832C38.752 22.8845 38.4852 23.2055 38.1361 23.4462C37.6129 23.7981 36.9723 23.974 36.2144 23.974C35.4566 23.974 34.816 23.7981 34.2927 23.4462C33.9437 23.2055 33.6769 22.8845 33.4924 22.4832Z"/>
  <path d="M34.7712 34.8818C34.3355 34.8818 34.0645 34.4088 34.2846 34.0329L35.4452 32.0515C35.4494 32.0442 35.4572 32.0398 35.4655 32.0398C35.4739 32.0398 35.4817 32.0353 35.4859 32.0281L39.5655 25.0123C39.6664 24.8387 39.8521 24.7318 40.0529 24.7318H40.6939C41.1294 24.7318 41.4006 25.2047 41.1805 25.5806L35.8995 34.6027C35.7984 34.7756 35.6132 34.8818 35.4129 34.8818H34.7712ZM36.0079 32.7322C35.7535 33.0184 35.2939 32.9732 35.1001 32.643L30.9565 25.5811C30.736 25.2052 31.0071 24.7318 31.4429 24.7318H32.1112C32.3112 24.7318 32.4963 24.8378 32.5975 25.0103L36.476 31.6185C36.5997 31.8293 36.5736 32.0959 36.4112 32.2786L36.0079 32.7322Z"/>
  <path d="M61.4156 22.9235L58.1169 20.6564C58.7998 19.5543 59.3669 18.3817 59.8085 17.158H60.9363C61.1606 17.158 61.3758 17.0671 61.5344 16.9052C61.693 16.7434 61.7821 16.5238 61.7821 16.2949C61.7821 16.066 61.693 15.8465 61.5344 15.6846C61.3758 15.5228 61.1606 15.4318 60.9363 15.4318H57.5192V13.6366C57.5192 13.4077 57.43 13.1882 57.2714 13.0263C57.1128 12.8645 56.8977 12.7735 56.6733 12.7735C56.449 12.7735 56.2339 12.8645 56.0752 13.0263C55.9166 13.1882 55.8275 13.4077 55.8275 13.6366V15.4318H52.0269C51.8026 15.4318 51.5875 15.5228 51.4288 15.6846C51.2702 15.8465 51.1811 16.066 51.1811 16.2949C51.1811 16.5238 51.2702 16.7434 51.4288 16.9052C51.5875 17.0671 51.8026 17.158 52.0269 17.158H58.0097C57.6492 18.0364 57.2153 18.8815 56.7128 19.684L54.587 18.2225C54.397 18.0943 54.165 18.0484 53.9418 18.0948C53.7187 18.1412 53.5228 18.2761 53.3972 18.4699C53.2715 18.6637 53.2265 18.9005 53.272 19.1282C53.3175 19.3559 53.4497 19.5558 53.6396 19.684L55.7373 21.1225C55.0811 21.9691 54.3506 22.753 53.555 23.4643C53.3868 23.6169 53.2849 23.8315 53.2716 24.0608C53.2584 24.2901 53.335 24.5154 53.4846 24.687C53.6341 24.8587 53.8444 24.9627 54.0691 24.9762C54.2938 24.9897 54.5146 24.9116 54.6828 24.759C55.5877 23.9496 56.4164 23.0558 57.1583 22.0891L60.4852 24.3907C60.6235 24.4856 60.7866 24.5357 60.9532 24.5346C61.1339 24.5341 61.3096 24.4746 61.4547 24.3648C61.5998 24.255 61.7067 24.1007 61.7596 23.9245C61.8126 23.7482 61.8088 23.5593 61.749 23.3854C61.6891 23.2115 61.5762 23.0617 61.4269 22.958L61.4156 22.9235Z"/>
</svg>