<svg xmlns="http://www.w3.org/2000/svg" width="91" height="50" viewBox="0 0 91 50">
  <path d="M42.0677 11.7708C42.0677 9.3319 40.0958 7.36005 37.6569 7.36005C35.2181 7.36005 33.2462 9.3319 33.2462 11.7708C33.2462 14.2096 35.2181 16.1815 37.6569 16.1815C40.0958 16.1815 42.0677 14.2096 42.0677 11.7708ZM37.6569 14.2096C36.3078 14.2096 35.2181 13.1199 35.2181 11.7708C35.2181 10.4216 36.3078 9.3319 37.6569 9.3319C39.0061 9.3319 40.0958 10.4216 40.0958 11.7708C40.0958 13.1199 39.0061 14.2096 37.6569 14.2096Z"/>
  <path d="M58.102 11.7708C58.102 9.3319 56.1301 7.36005 53.6912 7.36005C51.2524 7.36005 49.2805 9.3319 49.2805 11.7708C49.2805 14.2096 51.2524 16.1815 53.6912 16.1815C56.0782 16.1815 58.102 14.2096 58.102 11.7708ZM53.6393 14.2096C52.2902 14.2096 51.2005 13.1199 51.2005 11.7708C51.2005 10.4216 52.2902 9.3319 53.6393 9.3319C54.9885 9.3319 56.0782 10.4216 56.0782 11.7708C56.1301 13.1199 54.9885 14.2096 53.6393 14.2096Z"/>
  <path d="M28.3166 28.5316C24.2691 28.5316 21 31.8007 21 35.8482V40.674C21 41.8675 21.9859 42.8534 23.1794 42.8534H33.4019C34.5954 42.8534 35.5813 41.8675 35.5813 40.674V35.8482C35.6332 31.8007 32.3641 28.5316 28.3166 28.5316ZM33.6614 40.674C33.6614 40.7778 33.5576 40.8816 33.4538 40.8816H23.1794C23.0756 40.8816 22.9719 40.7778 22.9719 40.674V35.8482C22.9719 32.8904 25.3588 30.5034 28.3166 30.5034C31.2744 30.5034 33.6614 32.8904 33.6614 35.8482V40.674Z"/>
  <path d="M45.6481 28.5316C41.6007 28.5316 38.3315 31.8007 38.3315 35.8482V40.674C38.3315 41.8675 39.3175 42.8534 40.511 42.8534H50.7334C51.9269 42.8534 52.9129 41.8675 52.9129 40.674V35.8482C52.9648 31.8007 49.6956 28.5316 45.6481 28.5316ZM50.9929 40.674C50.9929 40.7778 50.8891 40.8816 50.7853 40.8816H40.511C40.4072 40.8816 40.3034 40.7778 40.3034 40.674V35.8482C40.3034 32.8904 42.6904 30.5034 45.6481 30.5034C48.6059 30.5034 50.9929 32.8904 50.9929 35.8482V40.674Z"/>
  <path d="M62.9797 28.5316C58.9322 28.5316 55.6631 31.8007 55.6631 35.8482V40.674C55.6631 41.8675 56.649 42.8534 57.8425 42.8534H68.065C69.2585 42.8534 70.2444 41.8675 70.2444 40.674V35.8482C70.2963 31.8007 67.0272 28.5316 62.9797 28.5316ZM68.3244 40.674C68.3244 40.7778 68.2207 40.8816 68.1169 40.8816H57.8425C57.7387 40.8816 57.6349 40.7778 57.6349 40.674V35.8482C57.6349 32.8904 60.0219 30.5034 62.9797 30.5034C65.9375 30.5034 68.3244 32.8904 68.3244 35.8482V40.674Z"/>
  <path d="M28.3166 27.1824C30.9111 27.1824 33.0387 25.0549 33.0387 22.4603C33.0387 19.8658 30.9111 17.7383 28.3166 17.7383C25.7221 17.7383 23.5945 19.9177 23.5945 22.5122C23.5945 25.1067 25.7221 27.1824 28.3166 27.1824ZM28.3166 19.762C29.8214 19.762 31.0668 21.0074 31.0668 22.5122C31.0668 24.017 29.8214 25.2624 28.3166 25.2624C26.8118 25.2624 25.5664 24.017 25.5664 22.5122C25.5664 21.0074 26.8118 19.762 28.3166 19.762Z"/>
  <path d="M45.6482 27.1824C48.2427 27.1824 50.3702 25.0549 50.3702 22.4603C50.3702 19.8658 48.2427 17.7383 45.6482 17.7383C43.0536 17.7383 40.9261 19.9177 40.9261 22.5122C40.9261 25.1067 43.0536 27.1824 45.6482 27.1824ZM45.6482 19.762C47.153 19.762 48.3984 21.0074 48.3984 22.5122C48.3984 24.017 47.153 25.2624 45.6482 25.2624C44.1433 25.2624 42.8979 24.017 42.8979 22.5122C42.8979 21.0074 44.1433 19.762 45.6482 19.762Z"/>
  <path d="M63.3429 27.1824C65.9375 27.1824 68.065 25.0549 68.065 22.4603C68.065 19.8658 65.9375 17.7383 63.3429 17.7383C60.7484 17.7383 58.6208 19.8658 58.6208 22.4603C58.6208 25.1067 60.7484 27.1824 63.3429 27.1824ZM63.3429 19.762C64.8477 19.762 66.0931 21.0074 66.0931 22.5122C66.0931 24.017 64.8477 25.2624 63.3429 25.2624C61.8381 25.2624 60.5927 24.017 60.5927 22.5122C60.5927 21.0074 61.8381 19.762 63.3429 19.762Z"/>
</svg>