<svg xmlns="http://www.w3.org/2000/svg" width="91" height="50" viewBox="0 0 91 50">
  <path d="M69.2032 21.6362L64.205 20.3541C63.64 20.2092 63.0678 20.5497 62.9229 21.1147C62.778 21.6797 63.1185 22.2519 63.6835 22.3968L67.8885 23.4725V26.7503L63.6835 27.8259C63.2923 27.9274 62.9917 28.2425 62.912 28.6372C62.4593 30.8828 61.5828 32.998 60.3043 34.9212C60.0798 35.258 60.0689 35.6926 60.2753 36.0403L62.4883 39.7817L60.1703 42.0997L56.4289 39.8867C56.0812 39.6803 55.6466 39.6911 55.3098 39.9157C53.3866 41.1942 51.2714 42.0707 49.0259 42.5234C48.6311 42.6031 48.3124 42.9037 48.2146 43.2949L47.1389 47.4998H43.8611L42.7818 43.2985C42.6804 42.9073 42.3653 42.6067 41.9705 42.527C39.725 42.0743 37.6098 41.1978 35.6866 39.9193C35.3498 39.6948 34.9151 39.6839 34.5674 39.8903L30.8261 42.1033L28.5081 39.7853L30.721 36.0439C30.9275 35.6962 30.9166 35.2616 30.6921 34.9248C29.4136 33.0016 28.5371 30.8864 28.0843 28.6409C28.0047 28.2425 27.704 27.9274 27.3129 27.8296L23.1079 26.7539V23.4761L27.3129 22.3968C27.704 22.2954 28.0047 21.9803 28.0843 21.5855C28.5371 19.34 29.4136 17.2248 30.6921 15.3016C30.9166 14.9648 30.9275 14.5301 30.721 14.1824L28.5081 10.4411L30.8261 8.12309L34.5638 10.336C34.9115 10.5425 35.3461 10.5316 35.683 10.3071C37.6098 9.02855 39.7213 8.15206 41.9669 7.69933C42.3653 7.61965 42.6804 7.31903 42.7782 6.92787L43.8539 2.72291H47.1316L48.2073 6.92787C48.3087 7.32266 48.6238 7.61965 49.0223 7.69933L49.2649 7.75003C49.8372 7.87318 50.3949 7.51461 50.5181 6.94598C50.6086 6.52585 50.4348 6.10934 50.1088 5.87029L48.9752 1.40818C48.8556 0.940957 48.4355 0.61499 47.9538 0.61499H43.0426C42.5609 0.61499 42.1407 0.940957 42.0212 1.40818L40.9021 5.77613C38.8449 6.26145 36.8927 7.07275 35.0818 8.1919L31.1955 5.89202C30.7826 5.64574 30.2538 5.71455 29.9134 6.05501L26.44 9.52836C26.0996 9.86882 26.0344 10.394 26.277 10.8105L28.5769 14.6967C27.4578 16.5077 26.6465 18.4598 26.1611 20.5171L21.7932 21.6362C21.326 21.7557 21 22.1759 21 22.6576V27.5688C21 28.0505 21.326 28.4706 21.7932 28.5902L26.1611 29.7093C26.6465 31.7665 27.4578 33.7223 28.5769 35.5296L26.277 39.4159C26.0307 39.8288 26.0996 40.3576 26.44 40.698L29.9134 44.1714C30.2538 44.5118 30.7826 44.577 31.1955 44.3343L35.0818 42.0345C36.8927 43.1536 38.8449 43.9649 40.9021 44.4502L42.0212 48.8182C42.1407 49.2854 42.5609 49.6114 43.0426 49.6114H47.9574C48.4391 49.6114 48.8593 49.2854 48.9788 48.8182L50.0979 44.4502C52.1551 43.9613 54.1073 43.1536 55.9183 42.0345L59.8045 44.3343C60.2174 44.5806 60.7462 44.5118 61.0866 44.1714L64.56 40.698C64.9004 40.3576 64.9656 39.8288 64.723 39.4159L62.4231 35.5296C63.5422 33.7187 64.3535 31.7665 64.8389 29.7093L69.2068 28.5902C69.674 28.4706 70 28.0505 70 27.5688V22.6576C69.9928 22.1759 69.6668 21.7557 69.2032 21.6362Z"/>
  <path d="M45.4982 17.2863C46.0813 17.2863 46.5521 16.8155 46.5521 16.2323C46.5521 15.6492 46.0813 15.1784 45.4982 15.1784C40.0401 15.1784 35.5997 19.6188 35.5997 25.0769C35.5997 30.535 40.0401 34.9754 45.4982 34.9754C50.9563 34.9754 55.3967 30.535 55.3967 25.0769C55.3967 24.4938 54.9259 24.0229 54.3427 24.0229C53.7596 24.0229 53.2888 24.4938 53.2888 25.0769C53.2888 29.3724 49.7937 32.8675 45.4982 32.8675C41.2027 32.8675 37.7076 29.3724 37.7076 25.0769C37.7076 20.7814 41.2027 17.2863 45.4982 17.2863Z"/>
  <path d="M54.426 17.8007C54.6252 18.0071 54.9005 18.123 55.183 18.123C55.1939 18.123 55.2047 18.123 55.2156 18.123C55.5126 18.1158 55.7915 17.9818 55.9834 17.7536L59.1779 14.0158C59.5546 13.574 59.5039 12.9076 59.062 12.5309C58.6201 12.1542 57.9537 12.2049 57.577 12.6468L55.1359 15.5008L54.5383 14.8815C54.1363 14.4649 53.4662 14.4505 53.0497 14.8525C52.6296 15.2581 52.6187 15.9246 53.0207 16.3411L54.426 17.8007Z"/>
  <path d="M47.6061 15.2002C47.6061 19.8724 51.4054 23.6717 56.0776 23.6717C60.7498 23.6717 64.5491 19.8724 64.5491 15.2002C64.5491 10.528 60.7498 6.72871 56.0776 6.72871C51.4054 6.72871 47.6061 10.528 47.6061 15.2002ZM56.0776 8.83301C59.5872 8.83301 62.4412 11.687 62.4412 15.2002C62.4412 18.7098 59.5872 21.5638 56.0776 21.5638C52.568 21.5638 49.7104 18.7098 49.7104 15.2002C49.7104 11.6906 52.568 8.83301 56.0776 8.83301Z"/>
</svg>