<svg xmlns="http://www.w3.org/2000/svg" width="60" height="48" viewBox="0 0 60 48" fill="none">
  <g clip-path="url(#clip0_1_109)">
    <path d="M57.75 9H31.5V39H57.75C58.9969 39 60 37.9969 60 36.75V11.25C60 10.0031 58.9969 9 57.75 9ZM55.5 20.25C55.5 20.8687 54.9938 21.375 54.375 21.375H53.3062C52.6594 23.5875 51.2719 25.8187 49.3031 27.9281C50.0906 28.5281 50.9062 29.1 51.75 29.6156C52.2656 29.9344 52.4344 30.6 52.1344 31.1344L51.3938 32.4375C51.075 32.9906 50.3719 33.1687 49.8281 32.8406C48.6469 32.1094 47.5312 31.3312 46.5094 30.5062C45.4875 31.3219 44.3813 32.1094 43.1906 32.8406C42.6469 33.1687 41.9438 32.9906 41.625 32.4375L40.8844 31.1344C40.5844 30.6094 40.7531 29.9344 41.2781 29.6156C42.15 29.0812 42.9656 28.5187 43.725 27.9281C42.9844 27.1406 42.3281 26.3344 41.7562 25.5188C41.3812 24.9844 41.55 24.2437 42.1031 23.9156L42.7125 23.55L43.3969 23.1469C43.9031 22.8469 44.5594 22.9875 44.8969 23.4656C45.3656 24.1219 45.9094 24.7781 46.5281 25.425C47.7938 24.0938 48.7594 22.7156 49.3406 21.375H38.625C38.0063 21.375 37.5 20.8687 37.5 20.25V18.75C37.5 18.1312 38.0063 17.625 38.625 17.625H44.625V16.125C44.625 15.5062 45.1312 15 45.75 15H47.25C47.8688 15 48.375 15.5062 48.375 16.125V17.625H54.375C54.9938 17.625 55.5 18.1312 55.5 18.75V20.25Z" fill="#FCA311"/>
    <path fill-rule="evenodd" clip-rule="evenodd" d="M0 36.7701V11.2701C0 10.0233 1.00312 9.02014 2.25 9.02014H28.5V39.0201H2.25C1.00312 39.0201 0 38.017 0 36.7701ZM8.96002 14.6324C8.80198 14.2459 9.11259 13.8524 9.53063 13.8524H11.6462C11.9113 13.8524 12.1413 14.0195 12.2799 14.2451C12.4235 14.4788 12.6003 14.6694 12.8104 14.817C13.1417 15.027 13.549 15.132 14.0323 15.132C14.5155 15.132 14.9159 15.027 15.2335 14.817C15.4529 14.6692 15.6361 14.4783 15.7829 14.2442C15.9235 14.0198 16.1533 13.8524 16.4183 13.8524H18.5339C18.9519 13.8524 19.2626 14.2459 19.1045 14.6324C18.7561 15.4845 18.2113 16.1301 17.4702 16.5691C16.5313 17.1204 15.3854 17.396 14.0323 17.396C12.693 17.396 11.547 17.1204 10.5943 16.5691C9.85319 16.1301 9.30842 15.4845 8.96002 14.6324ZM10.4425 33.1855C10.1985 33.615 10.5092 34.1477 11.0037 34.1477H14.2029C14.4351 34.1477 14.6494 34.023 14.764 33.8214L23.0016 19.3247C23.2457 18.8952 22.935 18.3624 22.4405 18.3624H19.2433C19.0101 18.3624 18.7951 18.4881 18.6809 18.6911L14.2578 26.5534L9.79 18.6888C9.6754 18.4871 9.46109 18.3624 9.22885 18.3624H5.94963C5.45445 18.3624 5.14387 18.8965 5.38928 19.326L11.871 30.6707L10.4425 33.1855Z" fill="#FCA311"/>
  </g>
  <defs>
    <clipPath id="clip0_1_109">
      <rect width="60" height="48" fill="white"/>
    </clipPath>
  </defs>
</svg>