<svg xmlns="http://www.w3.org/2000/svg" width="60" height="48" viewBox="0 0 60 48" fill="none">
  <path d="M50.4 21.2438C50.7844 20.2406 51 19.1437 51 18C51 13.0312 46.9688 9 42 9C40.1531 9 38.4281 9.5625 37.0031 10.5187C34.4062 6.01875 29.5594 3 24 3C15.7125 3 9 9.7125 9 18C9 18.2531 9.00937 18.5063 9.01875 18.7594C3.76875 20.6063 0 25.6125 0 31.5C0 38.9531 6.04688 45 13.5 45H48C54.6281 45 60 39.6281 60 33C60 27.1969 55.875 22.35 50.4 21.2438ZM36.8812 27H30.75V37.5C30.75 38.325 30.075 39 29.25 39H24.75C23.925 39 23.25 38.325 23.25 37.5V27H17.1188C15.7781 27 15.1125 25.3875 16.0594 24.4406L25.9406 14.5594C26.5219 13.9781 27.4781 13.9781 28.0594 14.5594L37.9406 24.4406C38.8875 25.3875 38.2125 27 36.8812 27Z" fill="#FCA311"/>
</svg>