<svg xmlns="http://www.w3.org/2000/svg" width="91" height="50" viewBox="0 0 91 50">
  <rect width="2.63158" height="2.63158" transform="matrix(-1 0 0 1 44.6842 47.3684)"/>
  <rect width="2.63158" height="2.63158" transform="matrix(-1 0 0 1 42.0526 47.3684)"/>
  <rect width="2.63158" height="2.63158" transform="matrix(-1 0 0 1 39.421 44.7369)"/>
  <rect width="2.63158" height="2.63158" transform="matrix(-1 0 0 1 36.7895 44.7369)"/>
  <rect width="2.63158" height="2.63158" transform="matrix(-1 0 0 1 34.1579 42.1052)"/>
  <rect width="2.63158" height="2.63158" transform="matrix(-1 0 0 1 31.5264 39.4737)"/>
  <rect width="2.63158" height="2.63158" transform="matrix(-1 0 0 1 28.8947 36.8421)"/>
  <rect width="2.63158" height="2.63158" transform="matrix(-1 0 0 1 26.2631 36.8421)"/>
  <rect width="2.63158" height="2.63158" transform="matrix(-1 0 0 1 26.2631 34.2105)"/>
  <rect width="2.63158" height="2.63158" transform="matrix(-1 0 0 1 23.6316 31.579)"/>
  <rect width="2.63158" height="2.63158" transform="matrix(-1 0 0 1 23.6316 28.9474)"/>
  <rect width="2.63158" height="2.63158" transform="matrix(-1 0 0 1 23.6316 26.3158)"/>
  <rect x="47.3158" y="50" width="2.63158" height="2.63158" transform="rotate(180 47.3158 50)"/>
  <rect x="47.3158" y="47.3684" width="2.63158" height="2.63158"/>
  <rect x="49.9474" y="47.3684" width="2.63158" height="2.63158"/>
  <rect x="52.579" y="44.7369" width="2.63158" height="2.63158"/>
  <rect x="55.2105" y="44.7369" width="2.63158" height="2.63158"/>
  <rect x="57.8421" y="42.1052" width="2.63158" height="2.63158"/>
  <rect x="60.4737" y="39.4737" width="2.63158" height="2.63158"/>
  <rect x="63.1053" y="36.8421" width="2.63158" height="2.63158"/>
  <rect x="65.7368" y="36.8421" width="2.63158" height="2.63158"/>
  <rect x="65.7368" y="34.2105" width="2.63158" height="2.63158"/>
  <rect x="68.3684" y="31.579" width="2.63158" height="2.63158"/>
  <rect x="68.3684" y="28.9474" width="2.63158" height="2.63158"/>
  <rect x="68.3684" y="26.3158" width="2.63158" height="2.63158"/>
  <rect x="44.6842" y="2.63157" width="2.63158" height="2.63158" transform="rotate(180 44.6842 2.63157)"/>
  <rect x="42.0526" y="2.63157" width="2.63158" height="2.63158" transform="rotate(180 42.0526 2.63157)"/>
  <rect x="39.421" y="5.26314" width="2.63158" height="2.63158" transform="rotate(180 39.421 5.26314)"/>
  <rect x="36.7895" y="5.26314" width="2.63158" height="2.63158" transform="rotate(180 36.7895 5.26314)"/>
  <rect x="34.1579" y="7.89471" width="2.63158" height="2.63158" transform="rotate(180 34.1579 7.89471)"/>
  <rect x="31.5264" y="10.5263" width="2.63158" height="2.63158" transform="rotate(180 31.5264 10.5263)"/>
  <rect x="28.8947" y="13.1579" width="2.63158" height="2.63158" transform="rotate(180 28.8947 13.1579)"/>
  <rect x="26.2631" y="13.1579" width="2.63158" height="2.63158" transform="rotate(180 26.2631 13.1579)"/>
  <rect x="26.2631" y="15.7895" width="2.63158" height="2.63158" transform="rotate(180 26.2631 15.7895)"/>
  <rect x="23.6316" y="18.421" width="2.63158" height="2.63158" transform="rotate(180 23.6316 18.421)"/>
  <rect x="23.6316" y="21.0526" width="2.63158" height="2.63158" transform="rotate(180 23.6316 21.0526)"/>
  <rect x="23.6316" y="23.6842" width="2.63158" height="2.63158" transform="rotate(180 23.6316 23.6842)"/>
  <rect x="23.6316" y="26.3158" width="2.63158" height="2.63158" transform="rotate(180 23.6316 26.3158)"/>
  <rect x="71" y="26.3158" width="2.63158" height="2.63158" transform="rotate(180 71 26.3158)"/>
  <rect width="2.63158" height="2.63158" transform="matrix(-1 0 0 1 47.3158 0)"/>
  <rect width="2.63158" height="2.63158" transform="matrix(1 0 0 -1 47.3158 2.63157)"/>
  <rect width="2.63158" height="2.63158" transform="matrix(1 0 0 -1 49.9474 2.63157)"/>
  <rect width="2.63158" height="2.63158" transform="matrix(1 0 0 -1 52.579 5.26314)"/>
  <rect width="2.63158" height="2.63158" transform="matrix(1 0 0 -1 55.2105 5.26314)"/>
  <rect width="2.63158" height="2.63158" transform="matrix(1 0 0 -1 57.8421 7.89471)"/>
  <rect width="2.63158" height="2.63158" transform="matrix(1 0 0 -1 60.4737 10.5263)"/>
  <rect width="2.63158" height="2.63158" transform="matrix(1 0 0 -1 63.1053 13.1579)"/>
  <rect width="2.63158" height="2.63158" transform="matrix(1 0 0 -1 65.7368 13.1579)"/>
  <rect width="2.63158" height="2.63158" transform="matrix(1 0 0 -1 65.7368 15.7895)"/>
  <rect width="2.63158" height="2.63158" transform="matrix(1 0 0 -1 68.3684 18.421)"/>
  <rect width="2.63158" height="2.63158" transform="matrix(1 0 0 -1 68.3684 21.0526)"/>
  <rect width="2.63158" height="2.63158" transform="matrix(1 0 0 -1 68.3684 23.6842)"/>
  <rect x="47.3158" y="42.1052" width="2.63158" height="2.63158" transform="rotate(180 47.3158 42.1052)"/>
  <rect width="2.63158" height="2.63158" transform="matrix(-1 0 0 1 31.5264 28.9474)"/>
  <rect width="2.63158" height="2.63158" transform="matrix(-1 0 0 1 34.1579 31.5789)"/>
  <rect width="2.63158" height="2.63158" transform="matrix(-1 0 0 1 36.7895 34.2105)"/>
  <rect width="2.63158" height="2.63158" transform="matrix(-1 0 0 1 39.421 36.8421)"/>
  <rect width="2.63158" height="2.63158" transform="matrix(-1 0 0 1 42.0526 39.4737)"/>
  <rect width="2.63158" height="2.63158" transform="matrix(-1 0 0 1 44.6842 39.4737)"/>
  <rect x="60.4737" y="28.9474" width="2.63158" height="2.63158"/>
  <rect x="57.8421" y="31.5789" width="2.63158" height="2.63158"/>
  <rect x="55.2105" y="34.2105" width="2.63158" height="2.63158"/>
  <rect x="52.579" y="36.8421" width="2.63158" height="2.63158"/>
  <rect x="49.9474" y="39.4737" width="2.63158" height="2.63158"/>
  <rect x="47.3158" y="39.4737" width="2.63158" height="2.63158"/>
  <rect width="2.63158" height="2.63158" transform="matrix(-1 0 0 1 31.5264 23.6842)"/>
  <rect width="2.63158" height="2.63158" transform="matrix(-1 0 0 1 47.3158 7.8947)"/>
  <rect x="31.5264" y="21.0526" width="2.63158" height="2.63158" transform="rotate(180 31.5264 21.0526)"/>
  <rect x="34.1579" y="18.421" width="2.63158" height="2.63158" transform="rotate(180 34.1579 18.421)"/>
  <rect x="36.7895" y="15.7895" width="2.63158" height="2.63158" transform="rotate(180 36.7895 15.7895)"/>
  <rect x="39.421" y="13.1579" width="2.63158" height="2.63158" transform="rotate(180 39.421 13.1579)"/>
  <rect x="42.0526" y="10.5263" width="2.63158" height="2.63158" transform="rotate(180 42.0526 10.5263)"/>
  <rect x="44.6842" y="10.5263" width="2.63158" height="2.63158" transform="rotate(180 44.6842 10.5263)"/>
  <rect x="60.4737" y="23.6842" width="2.63158" height="2.63158"/>
  <rect width="2.63158" height="2.63158" transform="matrix(1 0 0 -1 60.4737 21.0526)"/>
  <rect width="2.63158" height="2.63158" transform="matrix(1 0 0 -1 57.8421 18.421)"/>
  <rect width="2.63158" height="2.63158" transform="matrix(1 0 0 -1 55.2105 15.7895)"/>
  <rect width="2.63158" height="2.63158" transform="matrix(1 0 0 -1 52.579 13.1579)"/>
  <rect width="2.63158" height="2.63158" transform="matrix(1 0 0 -1 49.9474 10.5263)"/>
  <rect width="2.63158" height="2.63158" transform="matrix(1 0 0 -1 47.3158 10.5263)"/>
  <rect x="63.1053" y="21.0526" width="2.63158" height="2.63158"/>
  <rect x="63.1053" y="26.3158" width="2.63158" height="2.63158"/>
  <rect x="26.2631" y="26.3158" width="2.63158" height="2.63158"/>
  <rect x="26.2631" y="21.0526" width="2.63158" height="2.63158"/>
  <rect x="36.7895" y="28.9474" width="2.63158" height="2.63158" transform="rotate(180 36.7895 28.9474)"/>
  <rect x="47.3158" y="28.9474" width="2.63158" height="2.63158" transform="rotate(180 47.3158 28.9474)"/>
  <rect x="47.3158" y="31.579" width="2.63158" height="2.63158" transform="rotate(180 47.3158 31.579)"/>
  <rect x="47.3158" y="34.2105" width="2.63158" height="2.63158" transform="rotate(180 47.3158 34.2105)"/>
  <rect x="47.3158" y="36.8421" width="2.63158" height="2.63158" transform="rotate(180 47.3158 36.8421)"/>
  <rect x="42.0526" y="28.9474" width="2.63158" height="2.63158" transform="rotate(180 42.0526 28.9474)"/>
  <rect x="42.0526" y="31.579" width="2.63158" height="2.63158" transform="rotate(180 42.0526 31.579)"/>
  <rect width="2.63158" height="2.63158" transform="matrix(1 0 0 -1 55.2105 28.9474)"/>
  <rect width="2.63158" height="2.63158" transform="matrix(1 0 0 -1 49.9474 28.9474)"/>
  <rect width="2.63158" height="2.63158" transform="matrix(1 0 0 -1 49.9474 31.579)"/>
  <rect width="2.63158" height="5.26316" transform="matrix(-1 0 0 1 36.7895 21.0526)"/>
  <rect width="2.63158" height="2.63158" transform="matrix(-1 0 0 1 47.3158 21.0526)"/>
  <rect width="2.63158" height="2.63158" transform="matrix(-1 0 0 1 47.3158 18.4211)"/>
  <rect width="2.63158" height="2.63158" transform="matrix(-1 0 0 1 47.3158 15.7895)"/>
  <rect width="2.63158" height="2.63158" transform="matrix(-1 0 0 1 47.3158 13.1579)"/>
  <rect width="2.63158" height="2.63158" transform="matrix(-1 0 0 1 42.0526 21.0526)"/>
  <rect width="2.63158" height="2.63158" transform="matrix(-1 0 0 1 42.0526 18.4211)"/>
  <rect x="55.2105" y="21.0526" width="2.63158" height="2.63158"/>
  <rect x="55.2105" y="23.6842" width="2.63158" height="2.63158"/>
  <rect x="49.9474" y="23.6842" width="2.63158" height="2.63158"/>
  <rect x="44.6842" y="23.6842" width="2.63158" height="2.63158"/>
  <rect x="39.421" y="23.6842" width="2.63158" height="2.63158"/>
  <rect x="28.8947" y="23.6842" width="2.63158" height="2.63158"/>
  <rect x="49.9474" y="21.0526" width="2.63158" height="2.63158"/>
  <rect x="49.9474" y="18.4211" width="2.63158" height="2.63158"/>
</svg>